<?xml version="1.0" encoding="utf-8"?>
<!-- Generator: Adobe Illustrator 19.0.0, SVG Export Plug-In . SVG Version: 6.00 Build 0)  -->
<svg version="1.1" id="Layer_1" xmlns="http://www.w3.org/2000/svg" xmlns:xlink="http://www.w3.org/1999/xlink" x="0px" y="0px"
	 viewBox="0 0 80 80" style="enable-background:new 0 0 80 80;" xml:space="preserve">
<style type="text/css">
	.st0{fill:#292B30;}
</style>
<path class="st0" d="M40,4.8c-4,0-7.8,0.7-11.4,1.9l0,23.9c1.5-1.5,3.2-2.7,5.1-3.6c1.9-0.9,4-1.4,6.3-1.4c2.1,0,4.1,0.4,6,1.2
	c1.9,0.8,3.5,1.9,4.9,3.3c1.4,1.4,2.5,3,3.3,4.9c0.8,1.9,1.2,3.9,1.2,6c0,2.1-0.4,4.1-1.2,6c-0.8,1.9-1.9,3.5-3.3,4.9
	c-1.4,1.4-3,2.5-4.9,3.3c-1.9,0.8-3.9,1.2-6,1.2c-2.9,0-5.5-0.8-8-2.3c-0.5-0.3-0.8-0.7-0.9-1.2c-0.1-0.5,0-1.1,0.3-1.6
	c0.3-0.5,0.7-0.8,1.2-1c0.5-0.1,1.1,0,1.6,0.2c1.7,1.1,3.7,1.7,5.9,1.7c1.6,0,3-0.3,4.4-0.9c1.4-0.6,2.6-1.4,3.6-2.5
	c1-1,1.8-2.2,2.4-3.6c0.6-1.4,0.9-2.9,0.9-4.4c0-1.6-0.3-3-0.9-4.4c-0.6-1.4-1.4-2.6-2.4-3.6c-1-1-2.2-1.8-3.6-2.4
	c-1.4-0.6-2.9-0.9-4.4-0.9c-1.6,0-3,0.3-4.4,0.9C34.2,31.2,33,32,32,33c-1,1-1.9,2.2-2.5,3.6c-0.6,1.4-0.9,2.9-0.9,4.4v13.5
	c0,0.6-0.2,1-0.6,1.4c-0.4,0.4-0.9,0.6-1.4,0.6c-0.6,0-1-0.2-1.4-0.6c-0.4-0.4-0.6-0.9-0.6-1.4V8.3C12.8,14.1,4.8,26.1,4.8,40
	c0,19.5,15.8,35.3,35.3,35.3S75.3,59.5,75.3,40S59.5,4.8,40,4.8z"/>
</svg>
