<?xml version="1.0" encoding="utf-8"?>
<!-- Generator: Adobe Illustrator 19.0.0, SVG Export Plug-In . SVG Version: 6.00 Build 0)  -->
<svg version="1.1" id="Layer_1" xmlns="http://www.w3.org/2000/svg" xmlns:xlink="http://www.w3.org/1999/xlink" x="0px" y="0px"
	 viewBox="0.1 -1.1 65 20" style="enable-background:new 0.1 -1.1 65 20;" xml:space="preserve">
<style type="text/css">
	.st0{fill:#292B30;}
</style>
<path class="st0" d="M9,1.1c-0.9,0-1.7,0.2-2.5,0.4v5.3C6.8,6.5,7.2,6.2,7.6,6C8.1,5.8,8.5,5.7,9,5.7c0.5,0,0.9,0.1,1.3,0.3
	c0.4,0.2,0.8,0.4,1.1,0.7C11.8,7,12,7.4,12.2,7.8c0.2,0.4,0.3,0.9,0.3,1.3s-0.1,0.9-0.3,1.3c-0.2,0.4-0.4,0.8-0.7,1.1
	s-0.7,0.6-1.1,0.7C10,12.5,9.5,12.6,9,12.6c-0.6,0-1.2-0.2-1.8-0.5c-0.1-0.1-0.2-0.2-0.2-0.3c0-0.1,0-0.2,0.1-0.4
	c0.1-0.1,0.2-0.2,0.3-0.2c0.1,0,0.2,0,0.4,0c0.4,0.2,0.8,0.4,1.3,0.4c0.4,0,0.7-0.1,1-0.2s0.6-0.3,0.8-0.6c0.2-0.2,0.4-0.5,0.5-0.8
	c0.1-0.3,0.2-0.6,0.2-1c0-0.4-0.1-0.7-0.2-1c-0.1-0.3-0.3-0.6-0.5-0.8c-0.2-0.2-0.5-0.4-0.8-0.5c-0.3-0.1-0.6-0.2-1-0.2
	c-0.4,0-0.7,0.1-1,0.2C7.7,7,7.5,7.1,7.3,7.4C7,7.6,6.8,7.9,6.7,8.2c-0.1,0.3-0.2,0.6-0.2,1v3c0,0.1,0,0.2-0.1,0.3
	c-0.1,0.1-0.2,0.1-0.3,0.1c-0.1,0-0.2,0-0.3-0.1c-0.1-0.1-0.1-0.2-0.1-0.3V1.8C3,3.1,1.2,5.8,1.2,8.9c0,4.4,3.5,7.9,7.9,7.9
	s7.9-3.5,7.9-7.9S13.4,1.1,9,1.1z"/>
<g>
	<path class="st0" d="M21.7,4h1v2.3l0,1.1c0.3-0.3,0.6-0.5,0.9-0.6c0.3-0.2,0.7-0.2,1-0.2c0.4,0,0.7,0.1,1,0.2
		c0.3,0.1,0.6,0.3,0.8,0.6c0.2,0.3,0.4,0.6,0.5,0.9C27,8.7,27,9.1,27,9.5c0,0.5-0.1,0.9-0.2,1.3c-0.1,0.4-0.3,0.7-0.6,1
		s-0.5,0.5-0.8,0.6c-0.3,0.1-0.7,0.2-1,0.2c-0.3,0-0.6-0.1-0.9-0.2c-0.3-0.1-0.6-0.3-0.9-0.6h0l-0.1,0.6h-0.8V4z M22.7,11.2
		c0.3,0.2,0.6,0.4,0.8,0.5c0.3,0.1,0.5,0.2,0.7,0.2c0.3,0,0.5-0.1,0.7-0.2c0.2-0.1,0.4-0.3,0.6-0.5c0.2-0.2,0.3-0.4,0.4-0.7
		c0.1-0.3,0.1-0.6,0.1-1c0-0.3,0-0.6-0.1-0.9c-0.1-0.3-0.2-0.5-0.3-0.7c-0.1-0.2-0.3-0.3-0.5-0.4c-0.2-0.1-0.5-0.2-0.7-0.2
		c-0.3,0-0.5,0.1-0.8,0.2C23.3,7.8,23,8,22.7,8.3V11.2z"/>
	<path class="st0" d="M33.8,12.6H33l-0.1-1h0c-0.3,0.3-0.6,0.6-1,0.8c-0.3,0.2-0.8,0.3-1.2,0.3c-0.7,0-1.2-0.2-1.5-0.6
		s-0.5-1-0.5-1.8V6.7h1v3.5c0,0.6,0.1,1,0.3,1.2c0.2,0.3,0.6,0.4,1,0.4c0.3,0,0.6-0.1,0.9-0.3c0.3-0.2,0.6-0.4,0.9-0.8v-4h1V12.6z"
		/>
	<path class="st0" d="M35.8,12l4-4.5h-3.6V6.7h5v0.5l-4,4.5h4.1v0.8h-5.5V12z"/>
	<path class="st0" d="M43,12l4-4.5h-3.6V6.7h5v0.5l-4,4.5h4.1v0.8H43V12z"/>
	<path class="st0" d="M50.2,9.7c0-0.5,0.1-0.9,0.3-1.3s0.4-0.7,0.7-1c0.3-0.3,0.6-0.5,0.9-0.6c0.4-0.1,0.7-0.2,1.1-0.2
		c0.4,0,0.8,0.1,1.1,0.2c0.3,0.1,0.6,0.3,0.8,0.6c0.2,0.2,0.4,0.5,0.5,0.9s0.2,0.7,0.2,1.1c0,0.2,0,0.4,0,0.5h-4.6
		c0,0.6,0.3,1.1,0.7,1.5c0.4,0.4,0.9,0.6,1.6,0.6c0.3,0,0.7,0,0.9-0.1c0.3-0.1,0.6-0.2,0.8-0.4l0.3,0.6c-0.3,0.2-0.6,0.3-1,0.5
		c-0.4,0.1-0.8,0.2-1.3,0.2c-0.4,0-0.8-0.1-1.2-0.2c-0.4-0.1-0.7-0.3-1-0.6c-0.3-0.3-0.5-0.6-0.7-1C50.3,10.6,50.2,10.1,50.2,9.7z
		 M54.9,9.2c0-0.6-0.2-1.1-0.5-1.4c-0.3-0.3-0.7-0.5-1.3-0.5c-0.2,0-0.5,0-0.7,0.1c-0.2,0.1-0.4,0.2-0.6,0.4
		c-0.2,0.2-0.3,0.3-0.4,0.6s-0.2,0.5-0.2,0.8H54.9z"/>
	<path class="st0" d="M58.3,6.7h0.8l0.1,1.4h0c0.3-0.5,0.7-0.8,1.1-1.1c0.4-0.3,0.9-0.4,1.5-0.4c0.2,0,0.4,0,0.6,0.1
		c0.2,0,0.4,0.1,0.5,0.2l-0.2,0.9c-0.2-0.1-0.4-0.1-0.5-0.2c-0.1,0-0.3,0-0.6,0c-0.4,0-0.9,0.1-1.3,0.4c-0.4,0.3-0.8,0.7-1.1,1.3
		v3.4h-1V6.7z"/>
</g>
</svg>
